<svg width="121" height="11" viewBox="0 0 121 11" fill="none" xmlns="http://www.w3.org/2000/svg">
<path d="M11.5368 10.6398H9.24078C9.07278 10.6398 8.96078 10.5418 8.96078 10.3738V7.20981H2.88478V10.3738C2.88478 10.5418 2.77278 10.6398 2.60478 10.6398H0.308781C0.140781 10.6398 0.0287813 10.5418 0.0287813 10.3738C0.0287813 9.96781 0.0287813 9.56181 0.0287813 9.15581L0.00078126 6.70581C0.00078126 6.29981 0.00078126 5.89381 0.00078126 5.48781C0.00078126 0.181808 6.02078 0.139808 9.87078 0.139808L10.9768 0.153808C11.1588 0.153808 11.3548 0.153808 11.5368 0.153808C11.7048 0.153808 11.8168 0.265808 11.8168 0.433808V10.3738C11.8168 10.5418 11.7048 10.6398 11.5368 10.6398ZM2.89878 5.12381L8.96078 5.10981V2.19781C6.69278 2.19781 3.19278 2.29581 2.89878 5.12381ZM25.1495 10.3458C25.1495 10.5138 25.0375 10.6258 24.8695 10.6258H23.5955L21.0335 10.6538C20.6135 10.6538 20.1795 10.6538 19.7455 10.6538C16.2735 10.6538 13.0815 9.28181 13.0815 5.33381C13.0815 1.37181 16.3015 0.125808 19.7455 0.125808C20.1795 0.125808 20.6135 0.125808 21.0335 0.125808L23.5955 0.111808C24.0295 0.111808 24.4495 0.111808 24.8695 0.111808C25.0375 0.111808 25.1495 0.223808 25.1495 0.391808V1.86181C25.1495 2.02981 25.0375 2.14181 24.8695 2.14181C24.4495 2.14181 24.0295 2.14181 23.5955 2.14181L21.0335 2.15581C20.6135 2.15581 20.1795 2.15581 19.7455 2.15581C17.3655 2.15581 15.9655 2.65981 15.9655 5.31981C15.9655 7.93781 17.3375 8.62381 19.7455 8.62381H22.2935V6.32781H18.9055C18.7375 6.32781 18.6255 6.21581 18.6255 6.04781C18.6255 4.91381 18.8775 4.53581 20.0255 4.36781C20.4735 4.29781 20.9355 4.29781 21.3835 4.29781H24.8695C25.0375 4.29781 25.1495 4.40981 25.1495 4.57781V10.3458ZM38.0876 10.6398H35.7916C35.6236 10.6398 35.5116 10.5418 35.5116 10.3738V7.20981H29.4356V10.3738C29.4356 10.5418 29.3236 10.6398 29.1556 10.6398H26.8596C26.6916 10.6398 26.5796 10.5418 26.5796 10.3738C26.5796 9.96781 26.5796 9.56181 26.5796 9.15581L26.5516 6.70581C26.5516 6.29981 26.5516 5.89381 26.5516 5.48781C26.5516 0.181808 32.5716 0.139808 36.4216 0.139808L37.5276 0.153808C37.7096 0.153808 37.9056 0.153808 38.0876 0.153808C38.2556 0.153808 38.3676 0.265808 38.3676 0.433808V10.3738C38.3676 10.5418 38.2556 10.6398 38.0876 10.6398ZM29.4496 5.12381L35.5116 5.10981V2.19781C33.2436 2.19781 29.7436 2.29581 29.4496 5.12381ZM52.5963 10.6678C49.3343 10.6678 48.8163 9.77181 47.3043 7.09781C47.2903 7.06981 47.2763 7.04181 47.2623 6.99981H42.9363V10.4018C42.9363 10.5698 42.8243 10.6818 42.6563 10.6818H40.3463C40.1783 10.6818 40.0663 10.5698 40.0663 10.4018V5.24981C40.0663 5.08181 40.1783 4.96981 40.3463 4.96981H47.4723C48.3963 4.96981 49.4883 4.61981 49.4883 3.51381C49.4883 2.37981 48.3963 2.12781 47.4723 2.12781H42.4883C41.1023 2.12781 39.7723 2.14181 39.7723 0.363808C39.7723 0.195808 39.8843 0.0838078 40.0523 0.0838078H47.5003C49.9503 0.0838078 52.4003 0.489808 52.4003 3.49981C52.4003 5.09581 51.3363 6.04781 50.0063 6.55181L52.5823 10.5838H52.5963L52.6383 10.6258L52.5963 10.6678ZM65.9213 8.21781C65.9213 10.3458 64.8853 10.6258 63.0093 10.6258H56.7093C54.9033 10.6258 53.8953 10.4018 53.8953 8.34381V0.433808C53.8953 0.265808 54.0073 0.153808 54.1753 0.153808H56.4573C56.6253 0.153808 56.7373 0.265808 56.7373 0.433808V8.59581H63.0933V0.433808C63.0933 0.265808 63.2053 0.153808 63.3733 0.153808H65.6413C65.8093 0.153808 65.9213 0.265808 65.9213 0.433808V8.21781Z" fill="white"/>
<path d="M78.7731 10.3598C78.7731 10.5278 78.6611 10.6398 78.4931 10.6398H77.3311L75.0071 10.6538C74.6151 10.6538 74.2371 10.6538 73.8451 10.6538C70.3871 10.6538 67.1811 9.40781 67.1811 5.43181C67.1811 1.48381 70.4011 0.167808 73.8451 0.167808C74.2371 0.167808 74.6151 0.167808 75.0071 0.167808L77.3311 0.153808C77.7231 0.153808 78.1011 0.153808 78.4931 0.153808C78.6611 0.153808 78.7731 0.265808 78.7731 0.433808V1.90381C78.7731 2.07181 78.6611 2.18381 78.4931 2.18381C78.1011 2.18381 77.7231 2.18381 77.3311 2.18381L75.0071 2.19781C74.6151 2.19781 74.2371 2.19781 73.8451 2.19781C71.4791 2.19781 70.0651 2.64581 70.0651 5.31981C70.0651 7.93781 71.4371 8.62381 73.8451 8.62381C74.2371 8.62381 74.6151 8.62381 75.0071 8.62381L77.3311 8.60981C77.7231 8.60981 78.1011 8.60981 78.4931 8.60981C78.6611 8.60981 78.7731 8.72181 78.7731 8.88981V10.3598ZM85.9747 10.7938C82.5167 10.7938 79.1987 9.42181 79.1987 5.45981C79.1987 1.51181 82.3767 -0.000191927 85.8907 -0.000191927C89.3907 -0.000191927 92.6107 1.51181 92.6107 5.45981C92.6107 9.39381 89.4467 10.7938 85.9747 10.7938ZM82.0827 5.44581C82.0827 8.16181 83.4827 8.74981 85.9467 8.74981C88.3967 8.74981 89.7547 8.11981 89.7547 5.44581C89.7547 2.75781 88.4107 2.02981 85.9187 2.02981C83.3987 2.02981 82.0827 2.72981 82.0827 5.44581ZM106.696 10.6678C103.434 10.6678 102.916 9.77181 101.404 7.09781C101.39 7.06981 101.376 7.04181 101.362 6.99981H97.0359V10.4018C97.0359 10.5698 96.9239 10.6818 96.7559 10.6818H94.4459C94.2779 10.6818 94.1659 10.5698 94.1659 10.4018V5.24981C94.1659 5.08181 94.2779 4.96981 94.4459 4.96981H101.572C102.496 4.96981 103.588 4.61981 103.588 3.51381C103.588 2.37981 102.496 2.12781 101.572 2.12781H96.5879C95.2019 2.12781 93.8719 2.14181 93.8719 0.363808C93.8719 0.195808 93.9839 0.0838078 94.1519 0.0838078H101.6C104.05 0.0838078 106.5 0.489808 106.5 3.49981C106.5 5.09581 105.436 6.04781 104.106 6.55181L106.682 10.5838H106.696L106.738 10.6258L106.696 10.6678ZM108.569 10.6818C108.401 10.6818 108.289 10.5698 108.289 10.4018V5.24981C108.289 5.08181 108.401 4.96981 108.569 4.96981H115.695C116.619 4.96981 117.711 4.61981 117.711 3.51381C117.711 2.37981 116.619 2.12781 115.695 2.12781H110.711C109.325 2.12781 107.995 2.14181 107.995 0.363808C107.995 0.195808 108.107 0.0838078 108.275 0.0838078H115.723C118.173 0.0838078 120.623 0.489808 120.623 3.49981C120.623 6.07581 117.809 6.99981 115.667 6.99981H111.159V10.4018C111.159 10.5698 111.047 10.6818 110.879 10.6818H108.569Z" fill="#895AF6"/>
</svg>
